# xmcd
#
# Track frame offsets:
#	150
#	12597
#	23305
#	37098
#	47280
#	61865
#	70854
#	86748
#	100020
#	112107
#	120356
#	134441
#
# Disc length: 1913 seconds
#
# Revision: 1
# Processed by: cddbd v1.5.2PL0 Copyright (c) Steve Scherf et al.
# Submitted via: audiograbber 1.83.01
#
DISCID=9407770c
DTITLE=Dolly Parton - My Blue Ridge Mountain Boy
DYEAR=1969
DGENRE=Country
TTITLE0=In the Ghetto
TTITLE1=Games People Play
TTITLE2=Till Death Do Us Part
TTITLE3=Big Wind
TTITLE4=Evening Shade
TTITLE5=I'm fed Up With You
TTITLE6=My Blue Ridge Mountain Boy
TTITLE7=Daddy
TTITLE8=We Had All the Good things Going
TTITLE9=Monkey's Tale
TTITLE10=Gypsy, Joe And Me
TTITLE11=Home For Pete's Sake
EXTD=
EXTT0=
EXTT1=
EXTT2=
EXTT3=
EXTT4=
EXTT5=
EXTT6=
EXTT7=
EXTT8=
EXTT9=
EXTT10=
EXTT11=
PLAYORDER=
